<svg width="15" height="14" viewBox="0 0 15 14" fill="none" xmlns="http://www.w3.org/2000/svg">
<path fill-rule="evenodd" clip-rule="evenodd" d="M4.2085 0.125L13.5835 0.125C13.7493 0.125 13.9082 0.190848 14.0254 0.308058C14.1426 0.425269 14.2085 0.58424 14.2085 0.75V10.125C14.2085 10.4702 13.9287 10.75 13.5835 10.75C13.2383 10.75 12.9585 10.4702 12.9585 10.125V2.25888L1.52544 13.6919C1.28136 13.936 0.885632 13.936 0.641554 13.6919C0.397477 13.4479 0.397477 13.0521 0.641554 12.8081L12.0746 1.375L4.2085 1.375C3.86332 1.375 3.5835 1.09518 3.5835 0.75C3.5835 0.404822 3.86332 0.125 4.2085 0.125Z" fill="white"/>
</svg>
