<svg width="50" height="50" viewBox="0 0 50 50" fill="none" xmlns="http://www.w3.org/2000/svg">
<rect x="0.5" y="0.5" width="49" height="49" rx="24.5" fill="#1C1C21"/>
<rect x="0.5" y="0.5" width="49" height="49" rx="24.5" stroke="url(#paint0_linear_97_296)"/>
<g clip-path="url(#clip0_97_296)">
<path d="M21.2918 33.1251C28.8371 33.1251 32.9652 26.8724 32.9652 21.4517C32.9652 21.2759 32.9613 21.0962 32.9535 20.9204C33.7566 20.3397 34.4496 19.6203 35 18.7962C34.2521 19.129 33.458 19.3463 32.6449 19.4407C33.5011 18.9275 34.1421 18.1213 34.4492 17.1716C33.6438 17.6489 32.763 17.9856 31.8445 18.1673C31.2257 17.5098 30.4075 17.0744 29.5164 16.9285C28.6253 16.7826 27.711 16.9343 26.9148 17.3602C26.1186 17.7861 25.4848 18.4624 25.1115 19.2845C24.7382 20.1067 24.6462 21.029 24.8496 21.9087C23.2187 21.8269 21.6233 21.4032 20.1667 20.6652C18.71 19.9272 17.4247 18.8913 16.3941 17.6247C15.8703 18.5278 15.71 19.5965 15.9459 20.6135C16.1817 21.6306 16.7959 22.5197 17.6637 23.1001C17.0122 23.0794 16.375 22.904 15.8047 22.5884V22.6392C15.8041 23.5869 16.1317 24.5056 16.7319 25.2391C17.3321 25.9726 18.1678 26.4756 19.0969 26.6626C18.4934 26.8277 17.86 26.8518 17.2457 26.7329C17.5079 27.548 18.018 28.2609 18.7048 28.7721C19.3916 29.2833 20.2209 29.5673 21.077 29.5845C19.6237 30.726 17.8285 31.3452 15.9805 31.3423C15.6527 31.3418 15.3253 31.3217 15 31.2821C16.8774 32.4866 19.0613 33.1263 21.2918 33.1251Z" fill="white"/>
</g>
<defs>
<linearGradient id="paint0_linear_97_296" x1="25" y1="0.999994" x2="25" y2="49" gradientUnits="userSpaceOnUse">
<stop offset="0.278527" stop-color="#2F2F37"/>
<stop offset="1" stop-color="#2F2F37" stop-opacity="0"/>
</linearGradient>
<clipPath id="clip0_97_296">
<rect width="20" height="20" fill="white" transform="translate(15 15)"/>
</clipPath>
</defs>
</svg>
